<mxfile host="app.diagrams.net" modified="2021-05-23T08:15:44.083Z" agent="5.0 (Windows NT 10.0; Win64; x64) AppleWebKit/537.36 (KHTML, like Gecko) Chrome/90.0.4430.212 Safari/537.36" etag="C2kLTyfp_RI4s5eGvZdH" version="14.7.0" type="github" pages="2">
  <diagram id="C5RBs43oDa-KdzZeNtuy" name="Page-1">
    <mxGraphModel dx="1550" dy="836" grid="1" gridSize="10" guides="1" tooltips="1" connect="1" arrows="1" fold="1" page="1" pageScale="1" pageWidth="827" pageHeight="1169" math="0" shadow="0">
      <root>
        <mxCell id="WIyWlLk6GJQsqaUBKTNV-0" />
        <mxCell id="WIyWlLk6GJQsqaUBKTNV-1" parent="WIyWlLk6GJQsqaUBKTNV-0" />
        <mxCell id="zkfFHV4jXpPFQw0GAbJ--0" value="Person" style="swimlane;fontStyle=2;align=center;verticalAlign=top;childLayout=stackLayout;horizontal=1;startSize=26;horizontalStack=0;resizeParent=1;resizeLast=0;collapsible=1;marginBottom=0;rounded=0;shadow=0;strokeWidth=1;" parent="WIyWlLk6GJQsqaUBKTNV-1" vertex="1">
          <mxGeometry x="220" y="120" width="160" height="138" as="geometry">
            <mxRectangle x="230" y="140" width="160" height="26" as="alternateBounds" />
          </mxGeometry>
        </mxCell>
        <mxCell id="zkfFHV4jXpPFQw0GAbJ--1" value="Name" style="text;align=left;verticalAlign=top;spacingLeft=4;spacingRight=4;overflow=hidden;rotatable=0;points=[[0,0.5],[1,0.5]];portConstraint=eastwest;" parent="zkfFHV4jXpPFQw0GAbJ--0" vertex="1">
          <mxGeometry y="26" width="160" height="26" as="geometry" />
        </mxCell>
        <mxCell id="zkfFHV4jXpPFQw0GAbJ--2" value="Phone Number" style="text;align=left;verticalAlign=top;spacingLeft=4;spacingRight=4;overflow=hidden;rotatable=0;points=[[0,0.5],[1,0.5]];portConstraint=eastwest;rounded=0;shadow=0;html=0;" parent="zkfFHV4jXpPFQw0GAbJ--0" vertex="1">
          <mxGeometry y="52" width="160" height="26" as="geometry" />
        </mxCell>
        <mxCell id="zkfFHV4jXpPFQw0GAbJ--3" value="Email Address" style="text;align=left;verticalAlign=top;spacingLeft=4;spacingRight=4;overflow=hidden;rotatable=0;points=[[0,0.5],[1,0.5]];portConstraint=eastwest;rounded=0;shadow=0;html=0;" parent="zkfFHV4jXpPFQw0GAbJ--0" vertex="1">
          <mxGeometry y="78" width="160" height="26" as="geometry" />
        </mxCell>
        <mxCell id="zkfFHV4jXpPFQw0GAbJ--4" value="" style="line;html=1;strokeWidth=1;align=left;verticalAlign=middle;spacingTop=-1;spacingLeft=3;spacingRight=3;rotatable=0;labelPosition=right;points=[];portConstraint=eastwest;" parent="zkfFHV4jXpPFQw0GAbJ--0" vertex="1">
          <mxGeometry y="104" width="160" height="8" as="geometry" />
        </mxCell>
        <mxCell id="zkfFHV4jXpPFQw0GAbJ--5" value="Purchase Parking Pass" style="text;align=left;verticalAlign=top;spacingLeft=4;spacingRight=4;overflow=hidden;rotatable=0;points=[[0,0.5],[1,0.5]];portConstraint=eastwest;" parent="zkfFHV4jXpPFQw0GAbJ--0" vertex="1">
          <mxGeometry y="112" width="160" height="26" as="geometry" />
        </mxCell>
        <mxCell id="zkfFHV4jXpPFQw0GAbJ--6" value="Student" style="swimlane;fontStyle=0;align=center;verticalAlign=top;childLayout=stackLayout;horizontal=1;startSize=26;horizontalStack=0;resizeParent=1;resizeLast=0;collapsible=1;marginBottom=0;rounded=0;shadow=0;strokeWidth=1;" parent="WIyWlLk6GJQsqaUBKTNV-1" vertex="1">
          <mxGeometry x="120" y="360" width="160" height="138" as="geometry">
            <mxRectangle x="130" y="380" width="160" height="26" as="alternateBounds" />
          </mxGeometry>
        </mxCell>
        <mxCell id="zkfFHV4jXpPFQw0GAbJ--7" value="Student Number" style="text;align=left;verticalAlign=top;spacingLeft=4;spacingRight=4;overflow=hidden;rotatable=0;points=[[0,0.5],[1,0.5]];portConstraint=eastwest;" parent="zkfFHV4jXpPFQw0GAbJ--6" vertex="1">
          <mxGeometry y="26" width="160" height="26" as="geometry" />
        </mxCell>
        <mxCell id="zkfFHV4jXpPFQw0GAbJ--8" value="Average Mark" style="text;align=left;verticalAlign=top;spacingLeft=4;spacingRight=4;overflow=hidden;rotatable=0;points=[[0,0.5],[1,0.5]];portConstraint=eastwest;rounded=0;shadow=0;html=0;" parent="zkfFHV4jXpPFQw0GAbJ--6" vertex="1">
          <mxGeometry y="52" width="160" height="26" as="geometry" />
        </mxCell>
        <mxCell id="zkfFHV4jXpPFQw0GAbJ--9" value="" style="line;html=1;strokeWidth=1;align=left;verticalAlign=middle;spacingTop=-1;spacingLeft=3;spacingRight=3;rotatable=0;labelPosition=right;points=[];portConstraint=eastwest;" parent="zkfFHV4jXpPFQw0GAbJ--6" vertex="1">
          <mxGeometry y="78" width="160" height="8" as="geometry" />
        </mxCell>
        <mxCell id="zkfFHV4jXpPFQw0GAbJ--10" value="Is Eligible To Enroll" style="text;align=left;verticalAlign=top;spacingLeft=4;spacingRight=4;overflow=hidden;rotatable=0;points=[[0,0.5],[1,0.5]];portConstraint=eastwest;fontStyle=4" parent="zkfFHV4jXpPFQw0GAbJ--6" vertex="1">
          <mxGeometry y="86" width="160" height="26" as="geometry" />
        </mxCell>
        <mxCell id="zkfFHV4jXpPFQw0GAbJ--11" value="Get Seminars Taken" style="text;align=left;verticalAlign=top;spacingLeft=4;spacingRight=4;overflow=hidden;rotatable=0;points=[[0,0.5],[1,0.5]];portConstraint=eastwest;" parent="zkfFHV4jXpPFQw0GAbJ--6" vertex="1">
          <mxGeometry y="112" width="160" height="26" as="geometry" />
        </mxCell>
        <mxCell id="zkfFHV4jXpPFQw0GAbJ--12" value="" style="endArrow=block;endSize=10;endFill=0;shadow=0;strokeWidth=1;rounded=0;edgeStyle=elbowEdgeStyle;elbow=vertical;" parent="WIyWlLk6GJQsqaUBKTNV-1" source="zkfFHV4jXpPFQw0GAbJ--6" target="zkfFHV4jXpPFQw0GAbJ--0" edge="1">
          <mxGeometry width="160" relative="1" as="geometry">
            <mxPoint x="200" y="203" as="sourcePoint" />
            <mxPoint x="200" y="203" as="targetPoint" />
          </mxGeometry>
        </mxCell>
        <mxCell id="zkfFHV4jXpPFQw0GAbJ--13" value="Professor" style="swimlane;fontStyle=0;align=center;verticalAlign=top;childLayout=stackLayout;horizontal=1;startSize=26;horizontalStack=0;resizeParent=1;resizeLast=0;collapsible=1;marginBottom=0;rounded=0;shadow=0;strokeWidth=1;" parent="WIyWlLk6GJQsqaUBKTNV-1" vertex="1">
          <mxGeometry x="330" y="360" width="160" height="70" as="geometry">
            <mxRectangle x="340" y="380" width="170" height="26" as="alternateBounds" />
          </mxGeometry>
        </mxCell>
        <mxCell id="zkfFHV4jXpPFQw0GAbJ--14" value="Salary" style="text;align=left;verticalAlign=top;spacingLeft=4;spacingRight=4;overflow=hidden;rotatable=0;points=[[0,0.5],[1,0.5]];portConstraint=eastwest;" parent="zkfFHV4jXpPFQw0GAbJ--13" vertex="1">
          <mxGeometry y="26" width="160" height="26" as="geometry" />
        </mxCell>
        <mxCell id="zkfFHV4jXpPFQw0GAbJ--15" value="" style="line;html=1;strokeWidth=1;align=left;verticalAlign=middle;spacingTop=-1;spacingLeft=3;spacingRight=3;rotatable=0;labelPosition=right;points=[];portConstraint=eastwest;" parent="zkfFHV4jXpPFQw0GAbJ--13" vertex="1">
          <mxGeometry y="52" width="160" height="8" as="geometry" />
        </mxCell>
        <mxCell id="zkfFHV4jXpPFQw0GAbJ--16" value="" style="endArrow=block;endSize=10;endFill=0;shadow=0;strokeWidth=1;rounded=0;edgeStyle=elbowEdgeStyle;elbow=vertical;" parent="WIyWlLk6GJQsqaUBKTNV-1" source="zkfFHV4jXpPFQw0GAbJ--13" target="zkfFHV4jXpPFQw0GAbJ--0" edge="1">
          <mxGeometry width="160" relative="1" as="geometry">
            <mxPoint x="210" y="373" as="sourcePoint" />
            <mxPoint x="310" y="271" as="targetPoint" />
          </mxGeometry>
        </mxCell>
        <mxCell id="zkfFHV4jXpPFQw0GAbJ--17" value="Address" style="swimlane;fontStyle=0;align=center;verticalAlign=top;childLayout=stackLayout;horizontal=1;startSize=26;horizontalStack=0;resizeParent=1;resizeLast=0;collapsible=1;marginBottom=0;rounded=0;shadow=0;strokeWidth=1;" parent="WIyWlLk6GJQsqaUBKTNV-1" vertex="1">
          <mxGeometry x="508" y="120" width="160" height="216" as="geometry">
            <mxRectangle x="550" y="140" width="160" height="26" as="alternateBounds" />
          </mxGeometry>
        </mxCell>
        <mxCell id="zkfFHV4jXpPFQw0GAbJ--18" value="Street" style="text;align=left;verticalAlign=top;spacingLeft=4;spacingRight=4;overflow=hidden;rotatable=0;points=[[0,0.5],[1,0.5]];portConstraint=eastwest;" parent="zkfFHV4jXpPFQw0GAbJ--17" vertex="1">
          <mxGeometry y="26" width="160" height="26" as="geometry" />
        </mxCell>
        <mxCell id="zkfFHV4jXpPFQw0GAbJ--19" value="City" style="text;align=left;verticalAlign=top;spacingLeft=4;spacingRight=4;overflow=hidden;rotatable=0;points=[[0,0.5],[1,0.5]];portConstraint=eastwest;rounded=0;shadow=0;html=0;" parent="zkfFHV4jXpPFQw0GAbJ--17" vertex="1">
          <mxGeometry y="52" width="160" height="26" as="geometry" />
        </mxCell>
        <mxCell id="zkfFHV4jXpPFQw0GAbJ--20" value="State" style="text;align=left;verticalAlign=top;spacingLeft=4;spacingRight=4;overflow=hidden;rotatable=0;points=[[0,0.5],[1,0.5]];portConstraint=eastwest;rounded=0;shadow=0;html=0;" parent="zkfFHV4jXpPFQw0GAbJ--17" vertex="1">
          <mxGeometry y="78" width="160" height="26" as="geometry" />
        </mxCell>
        <mxCell id="zkfFHV4jXpPFQw0GAbJ--21" value="Postal Code" style="text;align=left;verticalAlign=top;spacingLeft=4;spacingRight=4;overflow=hidden;rotatable=0;points=[[0,0.5],[1,0.5]];portConstraint=eastwest;rounded=0;shadow=0;html=0;" parent="zkfFHV4jXpPFQw0GAbJ--17" vertex="1">
          <mxGeometry y="104" width="160" height="26" as="geometry" />
        </mxCell>
        <mxCell id="zkfFHV4jXpPFQw0GAbJ--22" value="Country" style="text;align=left;verticalAlign=top;spacingLeft=4;spacingRight=4;overflow=hidden;rotatable=0;points=[[0,0.5],[1,0.5]];portConstraint=eastwest;rounded=0;shadow=0;html=0;" parent="zkfFHV4jXpPFQw0GAbJ--17" vertex="1">
          <mxGeometry y="130" width="160" height="26" as="geometry" />
        </mxCell>
        <mxCell id="zkfFHV4jXpPFQw0GAbJ--23" value="" style="line;html=1;strokeWidth=1;align=left;verticalAlign=middle;spacingTop=-1;spacingLeft=3;spacingRight=3;rotatable=0;labelPosition=right;points=[];portConstraint=eastwest;" parent="zkfFHV4jXpPFQw0GAbJ--17" vertex="1">
          <mxGeometry y="156" width="160" height="8" as="geometry" />
        </mxCell>
        <mxCell id="zkfFHV4jXpPFQw0GAbJ--24" value="Validate" style="text;align=left;verticalAlign=top;spacingLeft=4;spacingRight=4;overflow=hidden;rotatable=0;points=[[0,0.5],[1,0.5]];portConstraint=eastwest;" parent="zkfFHV4jXpPFQw0GAbJ--17" vertex="1">
          <mxGeometry y="164" width="160" height="26" as="geometry" />
        </mxCell>
        <mxCell id="zkfFHV4jXpPFQw0GAbJ--25" value="Output As Label" style="text;align=left;verticalAlign=top;spacingLeft=4;spacingRight=4;overflow=hidden;rotatable=0;points=[[0,0.5],[1,0.5]];portConstraint=eastwest;" parent="zkfFHV4jXpPFQw0GAbJ--17" vertex="1">
          <mxGeometry y="190" width="160" height="26" as="geometry" />
        </mxCell>
        <mxCell id="zkfFHV4jXpPFQw0GAbJ--26" value="" style="endArrow=open;shadow=0;strokeWidth=1;rounded=0;endFill=1;edgeStyle=elbowEdgeStyle;elbow=vertical;" parent="WIyWlLk6GJQsqaUBKTNV-1" source="zkfFHV4jXpPFQw0GAbJ--0" target="zkfFHV4jXpPFQw0GAbJ--17" edge="1">
          <mxGeometry x="0.5" y="41" relative="1" as="geometry">
            <mxPoint x="380" y="192" as="sourcePoint" />
            <mxPoint x="540" y="192" as="targetPoint" />
            <mxPoint x="-40" y="32" as="offset" />
          </mxGeometry>
        </mxCell>
        <mxCell id="zkfFHV4jXpPFQw0GAbJ--27" value="0..1" style="resizable=0;align=left;verticalAlign=bottom;labelBackgroundColor=none;fontSize=12;" parent="zkfFHV4jXpPFQw0GAbJ--26" connectable="0" vertex="1">
          <mxGeometry x="-1" relative="1" as="geometry">
            <mxPoint y="4" as="offset" />
          </mxGeometry>
        </mxCell>
        <mxCell id="zkfFHV4jXpPFQw0GAbJ--28" value="1" style="resizable=0;align=right;verticalAlign=bottom;labelBackgroundColor=none;fontSize=12;" parent="zkfFHV4jXpPFQw0GAbJ--26" connectable="0" vertex="1">
          <mxGeometry x="1" relative="1" as="geometry">
            <mxPoint x="-7" y="4" as="offset" />
          </mxGeometry>
        </mxCell>
        <mxCell id="zkfFHV4jXpPFQw0GAbJ--29" value="lives at" style="text;html=1;resizable=0;points=[];;align=center;verticalAlign=middle;labelBackgroundColor=none;rounded=0;shadow=0;strokeWidth=1;fontSize=12;" parent="zkfFHV4jXpPFQw0GAbJ--26" vertex="1" connectable="0">
          <mxGeometry x="0.5" y="49" relative="1" as="geometry">
            <mxPoint x="-38" y="40" as="offset" />
          </mxGeometry>
        </mxCell>
      </root>
    </mxGraphModel>
  </diagram>
  <diagram id="E7WH9XGsUeiaICKPB7BP" name="Page-2">
    <mxGraphModel dx="3656" dy="870" grid="1" gridSize="10" guides="1" tooltips="1" connect="1" arrows="1" fold="1" page="1" pageScale="1" pageWidth="1654" pageHeight="2336" math="0" shadow="0">
      <root>
        <mxCell id="T6yORxNybT7pBkBuabIF-0" />
        <mxCell id="T6yORxNybT7pBkBuabIF-1" parent="T6yORxNybT7pBkBuabIF-0" />
        <mxCell id="T6yORxNybT7pBkBuabIF-208" value="&lt;font style=&quot;font-size: 18px&quot;&gt;&lt;b&gt;webtall-cli 脚手架架构设计图&lt;/b&gt;&lt;/font&gt;" style="text;html=1;strokeColor=none;fillColor=none;align=center;verticalAlign=middle;whiteSpace=wrap;rounded=0;" vertex="1" parent="T6yORxNybT7pBkBuabIF-1">
          <mxGeometry x="547" y="20" width="280" height="20" as="geometry" />
        </mxCell>
        <mxCell id="T6yORxNybT7pBkBuabIF-269" style="edgeStyle=orthogonalEdgeStyle;rounded=0;orthogonalLoop=1;jettySize=auto;html=1;exitX=0;exitY=0.5;exitDx=0;exitDy=0;startArrow=none;" edge="1" parent="T6yORxNybT7pBkBuabIF-1" source="T6yORxNybT7pBkBuabIF-273">
          <mxGeometry relative="1" as="geometry">
            <mxPoint x="110" y="130" as="targetPoint" />
            <Array as="points">
              <mxPoint x="110" y="130" />
              <mxPoint x="110" y="130" />
            </Array>
          </mxGeometry>
        </mxCell>
        <mxCell id="T6yORxNybT7pBkBuabIF-209" value="" style="rounded=0;whiteSpace=wrap;html=1;dashed=1;" vertex="1" parent="T6yORxNybT7pBkBuabIF-1">
          <mxGeometry x="200" y="70" width="473" height="120" as="geometry" />
        </mxCell>
        <mxCell id="T6yORxNybT7pBkBuabIF-210" value="&lt;font style=&quot;font-size: 14px&quot;&gt;脚手架运行框架，完成脚手架执行准备，命令注册，和命令执行&lt;/font&gt;" style="text;html=1;strokeColor=none;fillColor=none;align=center;verticalAlign=middle;whiteSpace=wrap;rounded=0;" vertex="1" parent="T6yORxNybT7pBkBuabIF-1">
          <mxGeometry x="205" y="90" width="438" height="10" as="geometry" />
        </mxCell>
        <mxCell id="T6yORxNybT7pBkBuabIF-211" value="&lt;b&gt;脚手架核心框架&lt;/b&gt;" style="text;html=1;align=center;verticalAlign=middle;whiteSpace=wrap;rounded=0;fillColor=#ffffff;" vertex="1" parent="T6yORxNybT7pBkBuabIF-1">
          <mxGeometry x="400.5" y="60" width="90" height="20" as="geometry" />
        </mxCell>
        <mxCell id="T6yORxNybT7pBkBuabIF-213" value="" style="rounded=0;whiteSpace=wrap;html=1;strokeColor=#d79b00;fillColor=#ffe6cc;" vertex="1" parent="T6yORxNybT7pBkBuabIF-1">
          <mxGeometry x="223" y="120" width="140" height="60" as="geometry" />
        </mxCell>
        <mxCell id="T6yORxNybT7pBkBuabIF-214" value="执行准备" style="text;html=1;strokeColor=none;fillColor=none;align=center;verticalAlign=middle;whiteSpace=wrap;rounded=0;dashed=1;" vertex="1" parent="T6yORxNybT7pBkBuabIF-1">
          <mxGeometry x="268" y="130" width="50" height="20" as="geometry" />
        </mxCell>
        <mxCell id="T6yORxNybT7pBkBuabIF-215" value="操作系统执行准备阶段" style="text;html=1;strokeColor=none;fillColor=none;align=center;verticalAlign=middle;whiteSpace=wrap;rounded=0;dashed=1;" vertex="1" parent="T6yORxNybT7pBkBuabIF-1">
          <mxGeometry x="228" y="150" width="130" height="20" as="geometry" />
        </mxCell>
        <mxCell id="T6yORxNybT7pBkBuabIF-216" value="" style="rounded=0;whiteSpace=wrap;html=1;strokeColor=#d79b00;fillColor=#ffe6cc;" vertex="1" parent="T6yORxNybT7pBkBuabIF-1">
          <mxGeometry x="373" y="120" width="140" height="60" as="geometry" />
        </mxCell>
        <mxCell id="T6yORxNybT7pBkBuabIF-217" value="命令注册" style="text;html=1;strokeColor=none;fillColor=none;align=center;verticalAlign=middle;whiteSpace=wrap;rounded=0;dashed=1;fontStyle=1" vertex="1" parent="T6yORxNybT7pBkBuabIF-1">
          <mxGeometry x="418" y="130" width="55" height="20" as="geometry" />
        </mxCell>
        <mxCell id="T6yORxNybT7pBkBuabIF-218" value="完成架手架命令注册" style="text;html=1;strokeColor=none;fillColor=none;align=center;verticalAlign=middle;whiteSpace=wrap;rounded=0;dashed=1;" vertex="1" parent="T6yORxNybT7pBkBuabIF-1">
          <mxGeometry x="378" y="150" width="130" height="20" as="geometry" />
        </mxCell>
        <mxCell id="T6yORxNybT7pBkBuabIF-219" value="" style="rounded=0;whiteSpace=wrap;html=1;strokeColor=#d79b00;fillColor=#ffe6cc;" vertex="1" parent="T6yORxNybT7pBkBuabIF-1">
          <mxGeometry x="523" y="120" width="140" height="60" as="geometry" />
        </mxCell>
        <mxCell id="T6yORxNybT7pBkBuabIF-220" value="命令执行" style="text;html=1;strokeColor=none;fillColor=none;align=center;verticalAlign=middle;whiteSpace=wrap;rounded=0;dashed=1;fontStyle=1" vertex="1" parent="T6yORxNybT7pBkBuabIF-1">
          <mxGeometry x="568" y="130" width="50" height="20" as="geometry" />
        </mxCell>
        <mxCell id="T6yORxNybT7pBkBuabIF-221" value="标准的命令执行流程" style="text;html=1;strokeColor=none;fillColor=none;align=center;verticalAlign=middle;whiteSpace=wrap;rounded=0;dashed=1;" vertex="1" parent="T6yORxNybT7pBkBuabIF-1">
          <mxGeometry x="528" y="150" width="130" height="20" as="geometry" />
        </mxCell>
        <mxCell id="T6yORxNybT7pBkBuabIF-320" value="" style="edgeStyle=orthogonalEdgeStyle;rounded=0;orthogonalLoop=1;jettySize=auto;html=1;" edge="1" parent="T6yORxNybT7pBkBuabIF-1" source="T6yORxNybT7pBkBuabIF-223" target="T6yORxNybT7pBkBuabIF-319">
          <mxGeometry relative="1" as="geometry" />
        </mxCell>
        <mxCell id="T6yORxNybT7pBkBuabIF-223" value="" style="rounded=0;whiteSpace=wrap;html=1;dashed=1;" vertex="1" parent="T6yORxNybT7pBkBuabIF-1">
          <mxGeometry x="700" y="70" width="473" height="120" as="geometry" />
        </mxCell>
        <mxCell id="T6yORxNybT7pBkBuabIF-224" value="&lt;font style=&quot;font-size: 14px&quot;&gt;项目/组件 标准git操作方案&lt;/font&gt;" style="text;html=1;strokeColor=none;fillColor=none;align=center;verticalAlign=middle;whiteSpace=wrap;rounded=0;" vertex="1" parent="T6yORxNybT7pBkBuabIF-1">
          <mxGeometry x="705" y="90" width="438" height="10" as="geometry" />
        </mxCell>
        <mxCell id="T6yORxNybT7pBkBuabIF-225" value="&lt;b&gt;标准git操作体系&lt;/b&gt;" style="text;html=1;align=center;verticalAlign=middle;whiteSpace=wrap;rounded=0;fillColor=#ffffff;" vertex="1" parent="T6yORxNybT7pBkBuabIF-1">
          <mxGeometry x="900.5" y="60" width="90" height="20" as="geometry" />
        </mxCell>
        <mxCell id="T6yORxNybT7pBkBuabIF-226" value="" style="rounded=0;whiteSpace=wrap;html=1;strokeColor=#d79b00;fillColor=#ffe6cc;" vertex="1" parent="T6yORxNybT7pBkBuabIF-1">
          <mxGeometry x="723" y="120" width="140" height="60" as="geometry" />
        </mxCell>
        <mxCell id="T6yORxNybT7pBkBuabIF-227" value="仓库创建" style="text;html=1;strokeColor=none;fillColor=none;align=center;verticalAlign=middle;whiteSpace=wrap;rounded=0;dashed=1;fontStyle=1" vertex="1" parent="T6yORxNybT7pBkBuabIF-1">
          <mxGeometry x="768" y="130" width="50" height="20" as="geometry" />
        </mxCell>
        <mxCell id="T6yORxNybT7pBkBuabIF-228" value="本地和远程仓库创建" style="text;html=1;strokeColor=none;fillColor=none;align=center;verticalAlign=middle;whiteSpace=wrap;rounded=0;dashed=1;" vertex="1" parent="T6yORxNybT7pBkBuabIF-1">
          <mxGeometry x="728" y="150" width="130" height="20" as="geometry" />
        </mxCell>
        <mxCell id="T6yORxNybT7pBkBuabIF-229" value="" style="rounded=0;whiteSpace=wrap;html=1;strokeColor=#d79b00;fillColor=#ffe6cc;" vertex="1" parent="T6yORxNybT7pBkBuabIF-1">
          <mxGeometry x="873" y="120" width="140" height="60" as="geometry" />
        </mxCell>
        <mxCell id="T6yORxNybT7pBkBuabIF-230" value="开发模式" style="text;html=1;strokeColor=none;fillColor=none;align=center;verticalAlign=middle;whiteSpace=wrap;rounded=0;dashed=1;fontStyle=1" vertex="1" parent="T6yORxNybT7pBkBuabIF-1">
          <mxGeometry x="918" y="130" width="55" height="20" as="geometry" />
        </mxCell>
        <mxCell id="T6yORxNybT7pBkBuabIF-231" value="生成开发分支" style="text;html=1;strokeColor=none;fillColor=none;align=center;verticalAlign=middle;whiteSpace=wrap;rounded=0;dashed=1;" vertex="1" parent="T6yORxNybT7pBkBuabIF-1">
          <mxGeometry x="878" y="150" width="130" height="20" as="geometry" />
        </mxCell>
        <mxCell id="T6yORxNybT7pBkBuabIF-232" value="" style="rounded=0;whiteSpace=wrap;html=1;strokeColor=#d79b00;fillColor=#ffe6cc;" vertex="1" parent="T6yORxNybT7pBkBuabIF-1">
          <mxGeometry x="1023" y="120" width="140" height="60" as="geometry" />
        </mxCell>
        <mxCell id="T6yORxNybT7pBkBuabIF-233" value="发布模式" style="text;html=1;strokeColor=none;fillColor=none;align=center;verticalAlign=middle;whiteSpace=wrap;rounded=0;dashed=1;fontStyle=1" vertex="1" parent="T6yORxNybT7pBkBuabIF-1">
          <mxGeometry x="1068" y="130" width="50" height="20" as="geometry" />
        </mxCell>
        <mxCell id="T6yORxNybT7pBkBuabIF-234" value="删除开发分支并生成tag" style="text;html=1;strokeColor=none;fillColor=none;align=center;verticalAlign=middle;whiteSpace=wrap;rounded=0;dashed=1;" vertex="1" parent="T6yORxNybT7pBkBuabIF-1">
          <mxGeometry x="1028" y="150" width="130" height="20" as="geometry" />
        </mxCell>
        <mxCell id="T6yORxNybT7pBkBuabIF-281" style="edgeStyle=orthogonalEdgeStyle;rounded=0;orthogonalLoop=1;jettySize=auto;html=1;" edge="1" parent="T6yORxNybT7pBkBuabIF-1" source="T6yORxNybT7pBkBuabIF-235">
          <mxGeometry relative="1" as="geometry">
            <mxPoint x="110" y="300" as="targetPoint" />
          </mxGeometry>
        </mxCell>
        <mxCell id="T6yORxNybT7pBkBuabIF-235" value="" style="rounded=0;whiteSpace=wrap;html=1;dashed=1;" vertex="1" parent="T6yORxNybT7pBkBuabIF-1">
          <mxGeometry x="200" y="240" width="473" height="120" as="geometry" />
        </mxCell>
        <mxCell id="T6yORxNybT7pBkBuabIF-236" value="&lt;font style=&quot;font-size: 14px&quot;&gt;项目/组件 初始化解决方案，支持标准和自定义模式&lt;/font&gt;" style="text;html=1;strokeColor=none;fillColor=none;align=center;verticalAlign=middle;whiteSpace=wrap;rounded=0;" vertex="1" parent="T6yORxNybT7pBkBuabIF-1">
          <mxGeometry x="205" y="260" width="438" height="10" as="geometry" />
        </mxCell>
        <mxCell id="T6yORxNybT7pBkBuabIF-237" value="&lt;b&gt;初始化体系&lt;/b&gt;" style="text;html=1;align=center;verticalAlign=middle;whiteSpace=wrap;rounded=0;fillColor=#ffffff;" vertex="1" parent="T6yORxNybT7pBkBuabIF-1">
          <mxGeometry x="400.5" y="230" width="90" height="20" as="geometry" />
        </mxCell>
        <mxCell id="T6yORxNybT7pBkBuabIF-238" value="" style="rounded=0;whiteSpace=wrap;html=1;strokeColor=#d79b00;fillColor=#ffe6cc;" vertex="1" parent="T6yORxNybT7pBkBuabIF-1">
          <mxGeometry x="223" y="290" width="140" height="60" as="geometry" />
        </mxCell>
        <mxCell id="T6yORxNybT7pBkBuabIF-239" value="项目初始化" style="text;html=1;strokeColor=none;fillColor=none;align=center;verticalAlign=middle;whiteSpace=wrap;rounded=0;dashed=1;fontStyle=1" vertex="1" parent="T6yORxNybT7pBkBuabIF-1">
          <mxGeometry x="252" y="300" width="82" height="20" as="geometry" />
        </mxCell>
        <mxCell id="T6yORxNybT7pBkBuabIF-240" value="项目初始化支持" style="text;html=1;strokeColor=none;fillColor=none;align=center;verticalAlign=middle;whiteSpace=wrap;rounded=0;dashed=1;" vertex="1" parent="T6yORxNybT7pBkBuabIF-1">
          <mxGeometry x="228" y="320" width="130" height="20" as="geometry" />
        </mxCell>
        <mxCell id="T6yORxNybT7pBkBuabIF-241" value="" style="rounded=0;whiteSpace=wrap;html=1;strokeColor=#d79b00;fillColor=#ffe6cc;" vertex="1" parent="T6yORxNybT7pBkBuabIF-1">
          <mxGeometry x="373" y="290" width="140" height="60" as="geometry" />
        </mxCell>
        <mxCell id="T6yORxNybT7pBkBuabIF-243" value="组件初始化支持" style="text;html=1;strokeColor=none;fillColor=none;align=center;verticalAlign=middle;whiteSpace=wrap;rounded=0;dashed=1;" vertex="1" parent="T6yORxNybT7pBkBuabIF-1">
          <mxGeometry x="378" y="320" width="130" height="20" as="geometry" />
        </mxCell>
        <mxCell id="T6yORxNybT7pBkBuabIF-244" value="" style="rounded=0;whiteSpace=wrap;html=1;strokeColor=#d79b00;fillColor=#ffe6cc;" vertex="1" parent="T6yORxNybT7pBkBuabIF-1">
          <mxGeometry x="523" y="290" width="140" height="60" as="geometry" />
        </mxCell>
        <mxCell id="T6yORxNybT7pBkBuabIF-245" value="初始化模式" style="text;html=1;strokeColor=none;fillColor=none;align=center;verticalAlign=middle;whiteSpace=wrap;rounded=0;dashed=1;fontStyle=1" vertex="1" parent="T6yORxNybT7pBkBuabIF-1">
          <mxGeometry x="557" y="300" width="72" height="20" as="geometry" />
        </mxCell>
        <mxCell id="T6yORxNybT7pBkBuabIF-246" value="标准和自定义模式" style="text;html=1;strokeColor=none;fillColor=none;align=center;verticalAlign=middle;whiteSpace=wrap;rounded=0;dashed=1;" vertex="1" parent="T6yORxNybT7pBkBuabIF-1">
          <mxGeometry x="528" y="320" width="130" height="20" as="geometry" />
        </mxCell>
        <mxCell id="T6yORxNybT7pBkBuabIF-252" style="edgeStyle=orthogonalEdgeStyle;rounded=0;orthogonalLoop=1;jettySize=auto;html=1;exitX=0.5;exitY=1;exitDx=0;exitDy=0;" edge="1" parent="T6yORxNybT7pBkBuabIF-1">
          <mxGeometry relative="1" as="geometry">
            <mxPoint x="443" y="310" as="sourcePoint" />
            <mxPoint x="443" y="310" as="targetPoint" />
          </mxGeometry>
        </mxCell>
        <mxCell id="T6yORxNybT7pBkBuabIF-253" value="组件初始化" style="text;html=1;strokeColor=none;fillColor=none;align=center;verticalAlign=middle;whiteSpace=wrap;rounded=0;dashed=1;fontStyle=1" vertex="1" parent="T6yORxNybT7pBkBuabIF-1">
          <mxGeometry x="400.5" y="300" width="82" height="20" as="geometry" />
        </mxCell>
        <mxCell id="T6yORxNybT7pBkBuabIF-255" value="执行准备" style="text;html=1;strokeColor=none;fillColor=none;align=center;verticalAlign=middle;whiteSpace=wrap;rounded=0;dashed=1;fontStyle=1" vertex="1" parent="T6yORxNybT7pBkBuabIF-1">
          <mxGeometry x="268" y="130" width="50" height="20" as="geometry" />
        </mxCell>
        <mxCell id="T6yORxNybT7pBkBuabIF-256" value="" style="rounded=0;whiteSpace=wrap;html=1;dashed=1;" vertex="1" parent="T6yORxNybT7pBkBuabIF-1">
          <mxGeometry x="706.5" y="240" width="473" height="120" as="geometry" />
        </mxCell>
        <mxCell id="T6yORxNybT7pBkBuabIF-257" value="&lt;font style=&quot;font-size: 14px&quot;&gt;项目/组件 发布解决方案，支持测试和正式模式&lt;/font&gt;" style="text;html=1;strokeColor=none;fillColor=none;align=center;verticalAlign=middle;whiteSpace=wrap;rounded=0;" vertex="1" parent="T6yORxNybT7pBkBuabIF-1">
          <mxGeometry x="711.5" y="260" width="438" height="10" as="geometry" />
        </mxCell>
        <mxCell id="T6yORxNybT7pBkBuabIF-258" value="&lt;b&gt;发布体系&lt;/b&gt;" style="text;html=1;align=center;verticalAlign=middle;whiteSpace=wrap;rounded=0;fillColor=#ffffff;" vertex="1" parent="T6yORxNybT7pBkBuabIF-1">
          <mxGeometry x="907" y="230" width="90" height="20" as="geometry" />
        </mxCell>
        <mxCell id="T6yORxNybT7pBkBuabIF-259" value="" style="rounded=0;whiteSpace=wrap;html=1;strokeColor=#d79b00;fillColor=#ffe6cc;" vertex="1" parent="T6yORxNybT7pBkBuabIF-1">
          <mxGeometry x="729.5" y="290" width="140" height="60" as="geometry" />
        </mxCell>
        <mxCell id="T6yORxNybT7pBkBuabIF-260" value="项目发布" style="text;html=1;strokeColor=none;fillColor=none;align=center;verticalAlign=middle;whiteSpace=wrap;rounded=0;dashed=1;fontStyle=1" vertex="1" parent="T6yORxNybT7pBkBuabIF-1">
          <mxGeometry x="758.5" y="300" width="82" height="20" as="geometry" />
        </mxCell>
        <mxCell id="T6yORxNybT7pBkBuabIF-261" value="项目自动化发布" style="text;html=1;strokeColor=none;fillColor=none;align=center;verticalAlign=middle;whiteSpace=wrap;rounded=0;dashed=1;" vertex="1" parent="T6yORxNybT7pBkBuabIF-1">
          <mxGeometry x="734.5" y="320" width="130" height="20" as="geometry" />
        </mxCell>
        <mxCell id="T6yORxNybT7pBkBuabIF-262" value="" style="rounded=0;whiteSpace=wrap;html=1;strokeColor=#d79b00;fillColor=#ffe6cc;" vertex="1" parent="T6yORxNybT7pBkBuabIF-1">
          <mxGeometry x="879.5" y="290" width="140" height="60" as="geometry" />
        </mxCell>
        <mxCell id="T6yORxNybT7pBkBuabIF-263" value="组件自动化发布" style="text;html=1;strokeColor=none;fillColor=none;align=center;verticalAlign=middle;whiteSpace=wrap;rounded=0;dashed=1;" vertex="1" parent="T6yORxNybT7pBkBuabIF-1">
          <mxGeometry x="884.5" y="320" width="130" height="20" as="geometry" />
        </mxCell>
        <mxCell id="T6yORxNybT7pBkBuabIF-264" value="" style="rounded=0;whiteSpace=wrap;html=1;strokeColor=#d79b00;fillColor=#ffe6cc;" vertex="1" parent="T6yORxNybT7pBkBuabIF-1">
          <mxGeometry x="1029.5" y="290" width="140" height="60" as="geometry" />
        </mxCell>
        <mxCell id="T6yORxNybT7pBkBuabIF-265" value="发布模式" style="text;html=1;strokeColor=none;fillColor=none;align=center;verticalAlign=middle;whiteSpace=wrap;rounded=0;dashed=1;fontStyle=1" vertex="1" parent="T6yORxNybT7pBkBuabIF-1">
          <mxGeometry x="1063.5" y="300" width="72" height="20" as="geometry" />
        </mxCell>
        <mxCell id="T6yORxNybT7pBkBuabIF-266" value="测试和正式发布模式" style="text;html=1;strokeColor=none;fillColor=none;align=center;verticalAlign=middle;whiteSpace=wrap;rounded=0;dashed=1;" vertex="1" parent="T6yORxNybT7pBkBuabIF-1">
          <mxGeometry x="1034.5" y="320" width="130" height="20" as="geometry" />
        </mxCell>
        <mxCell id="T6yORxNybT7pBkBuabIF-267" style="edgeStyle=orthogonalEdgeStyle;rounded=0;orthogonalLoop=1;jettySize=auto;html=1;exitX=0.5;exitY=1;exitDx=0;exitDy=0;" edge="1" parent="T6yORxNybT7pBkBuabIF-1">
          <mxGeometry relative="1" as="geometry">
            <mxPoint x="949.5" y="310" as="sourcePoint" />
            <mxPoint x="949.5" y="310" as="targetPoint" />
          </mxGeometry>
        </mxCell>
        <mxCell id="T6yORxNybT7pBkBuabIF-268" value="组件发布" style="text;html=1;strokeColor=none;fillColor=none;align=center;verticalAlign=middle;whiteSpace=wrap;rounded=0;dashed=1;fontStyle=1" vertex="1" parent="T6yORxNybT7pBkBuabIF-1">
          <mxGeometry x="907" y="300" width="82" height="20" as="geometry" />
        </mxCell>
        <mxCell id="T6yORxNybT7pBkBuabIF-273" value="fs" style="rounded=0;whiteSpace=wrap;html=1;shadow=0;strokeColor=#000000;fillColor=#ffffff;gradientColor=none;dashed=1;dashPattern=1 1;" vertex="1" parent="T6yORxNybT7pBkBuabIF-1">
          <mxGeometry x="130" y="110" width="40" height="40" as="geometry" />
        </mxCell>
        <mxCell id="T6yORxNybT7pBkBuabIF-274" value="" style="edgeStyle=orthogonalEdgeStyle;rounded=0;orthogonalLoop=1;jettySize=auto;html=1;exitX=0;exitY=0.5;exitDx=0;exitDy=0;endArrow=none;" edge="1" parent="T6yORxNybT7pBkBuabIF-1" source="T6yORxNybT7pBkBuabIF-209" target="T6yORxNybT7pBkBuabIF-273">
          <mxGeometry relative="1" as="geometry">
            <mxPoint x="50" y="130" as="targetPoint" />
            <mxPoint x="200" y="130" as="sourcePoint" />
          </mxGeometry>
        </mxCell>
        <mxCell id="T6yORxNybT7pBkBuabIF-275" value="" style="rounded=0;whiteSpace=wrap;html=1;shadow=0;dashed=1;dashPattern=1 1;strokeColor=#000000;fillColor=#ffffff;gradientColor=none;" vertex="1" parent="T6yORxNybT7pBkBuabIF-1">
          <mxGeometry x="-50" y="90" width="160" height="110" as="geometry" />
        </mxCell>
        <mxCell id="T6yORxNybT7pBkBuabIF-276" value="本地缓存体系" style="text;html=1;align=center;verticalAlign=middle;whiteSpace=wrap;rounded=0;shadow=0;fillColor=#b0e3e6;strokeColor=#0e8088;fontStyle=1" vertex="1" parent="T6yORxNybT7pBkBuabIF-1">
          <mxGeometry x="-15" y="80" width="90" height="20" as="geometry" />
        </mxCell>
        <mxCell id="T6yORxNybT7pBkBuabIF-278" value="操作系统本地缓存系统" style="text;html=1;strokeColor=none;fillColor=none;align=center;verticalAlign=middle;whiteSpace=wrap;rounded=0;shadow=0;fontStyle=1" vertex="1" parent="T6yORxNybT7pBkBuabIF-1">
          <mxGeometry x="-31.5" y="108" width="123" height="20" as="geometry" />
        </mxCell>
        <mxCell id="T6yORxNybT7pBkBuabIF-280" value="&lt;b&gt;本地文件&amp;amp;环境变量&lt;/b&gt;&lt;br&gt;接入本地文件体系" style="rounded=1;whiteSpace=wrap;html=1;shadow=0;strokeColor=#d6b656;fillColor=#fff2cc;gradientColor=#ffd966;" vertex="1" parent="T6yORxNybT7pBkBuabIF-1">
          <mxGeometry x="-30" y="133" width="120" height="60" as="geometry" />
        </mxCell>
        <mxCell id="T6yORxNybT7pBkBuabIF-282" value="npm" style="rounded=0;whiteSpace=wrap;html=1;shadow=0;strokeColor=#000000;fillColor=#ffffff;gradientColor=none;dashed=1;dashPattern=1 1;" vertex="1" parent="T6yORxNybT7pBkBuabIF-1">
          <mxGeometry x="130" y="284" width="60" height="30" as="geometry" />
        </mxCell>
        <mxCell id="T6yORxNybT7pBkBuabIF-283" value="" style="rounded=0;whiteSpace=wrap;html=1;shadow=0;dashed=1;dashPattern=1 1;strokeColor=#000000;fillColor=#ffffff;gradientColor=none;" vertex="1" parent="T6yORxNybT7pBkBuabIF-1">
          <mxGeometry x="-50" y="250" width="160" height="190" as="geometry" />
        </mxCell>
        <mxCell id="T6yORxNybT7pBkBuabIF-284" value="模板库" style="text;html=1;align=center;verticalAlign=middle;whiteSpace=wrap;rounded=0;shadow=0;fillColor=#b0e3e6;strokeColor=#0e8088;fontStyle=1" vertex="1" parent="T6yORxNybT7pBkBuabIF-1">
          <mxGeometry x="-15" y="240" width="90" height="20" as="geometry" />
        </mxCell>
        <mxCell id="T6yORxNybT7pBkBuabIF-285" value="支持项目和组件模板" style="text;html=1;strokeColor=none;fillColor=none;align=center;verticalAlign=middle;whiteSpace=wrap;rounded=0;shadow=0;fontStyle=1" vertex="1" parent="T6yORxNybT7pBkBuabIF-1">
          <mxGeometry x="-31.5" y="268" width="123" height="20" as="geometry" />
        </mxCell>
        <mxCell id="T6yORxNybT7pBkBuabIF-286" value="&lt;b&gt;项目模板&lt;br&gt;标准项目模板&lt;br&gt;&lt;/b&gt;" style="rounded=1;whiteSpace=wrap;html=1;shadow=0;strokeColor=#d6b656;fillColor=#fff2cc;gradientColor=#ffd966;" vertex="1" parent="T6yORxNybT7pBkBuabIF-1">
          <mxGeometry x="-30" y="293" width="120" height="60" as="geometry" />
        </mxCell>
        <mxCell id="T6yORxNybT7pBkBuabIF-288" value="&lt;b&gt;组件模板&lt;br&gt;标准组件模板&lt;br&gt;&lt;/b&gt;" style="rounded=1;whiteSpace=wrap;html=1;shadow=0;strokeColor=#d6b656;fillColor=#fff2cc;gradientColor=#ffd966;" vertex="1" parent="T6yORxNybT7pBkBuabIF-1">
          <mxGeometry x="-28.5" y="366" width="120" height="60" as="geometry" />
        </mxCell>
        <mxCell id="T6yORxNybT7pBkBuabIF-289" value="&lt;font color=&quot;#ffffff&quot;&gt;&lt;b&gt;&lt;font style=&quot;font-size: 14px&quot;&gt;一站式前端研发工作台&lt;/font&gt;&lt;/b&gt;，面向前端开发工程师，创建SOP标准研发工作流，沉淀前端研发最佳实践，快速接入项目产生价值&lt;/font&gt;" style="rounded=0;whiteSpace=wrap;html=1;shadow=0;dashed=1;dashPattern=1 1;strokeColor=#001DBC;fillColor=#0050ef;fontColor=#ffffff;" vertex="1" parent="T6yORxNybT7pBkBuabIF-1">
          <mxGeometry x="205" y="390" width="980" height="50" as="geometry" />
        </mxCell>
        <mxCell id="T6yORxNybT7pBkBuabIF-317" style="edgeStyle=orthogonalEdgeStyle;rounded=0;orthogonalLoop=1;jettySize=auto;html=1;exitX=0.75;exitY=0;exitDx=0;exitDy=0;" edge="1" parent="T6yORxNybT7pBkBuabIF-1" source="T6yORxNybT7pBkBuabIF-290">
          <mxGeometry relative="1" as="geometry">
            <mxPoint x="551" y="441" as="targetPoint" />
          </mxGeometry>
        </mxCell>
        <mxCell id="T6yORxNybT7pBkBuabIF-348" style="edgeStyle=orthogonalEdgeStyle;rounded=0;orthogonalLoop=1;jettySize=auto;html=1;" edge="1" parent="T6yORxNybT7pBkBuabIF-1" source="T6yORxNybT7pBkBuabIF-290">
          <mxGeometry relative="1" as="geometry">
            <mxPoint x="110" y="660" as="targetPoint" />
          </mxGeometry>
        </mxCell>
        <mxCell id="T6yORxNybT7pBkBuabIF-290" value="" style="rounded=0;whiteSpace=wrap;html=1;dashed=1;" vertex="1" parent="T6yORxNybT7pBkBuabIF-1">
          <mxGeometry x="196.5" y="600" width="473" height="120" as="geometry" />
        </mxCell>
        <mxCell id="T6yORxNybT7pBkBuabIF-291" value="&lt;font style=&quot;font-size: 14px&quot;&gt;支撑 初始化体系 的标准 restful API&lt;/font&gt;" style="text;html=1;strokeColor=none;fillColor=none;align=center;verticalAlign=middle;whiteSpace=wrap;rounded=0;" vertex="1" parent="T6yORxNybT7pBkBuabIF-1">
          <mxGeometry x="201.5" y="620" width="438" height="10" as="geometry" />
        </mxCell>
        <mxCell id="T6yORxNybT7pBkBuabIF-292" value="&lt;b&gt;OPEN API&lt;/b&gt;" style="text;html=1;align=center;verticalAlign=middle;whiteSpace=wrap;rounded=0;fillColor=#ffffff;" vertex="1" parent="T6yORxNybT7pBkBuabIF-1">
          <mxGeometry x="397" y="590" width="90" height="20" as="geometry" />
        </mxCell>
        <mxCell id="T6yORxNybT7pBkBuabIF-293" value="" style="rounded=0;whiteSpace=wrap;html=1;strokeColor=#d79b00;fillColor=#ffe6cc;" vertex="1" parent="T6yORxNybT7pBkBuabIF-1">
          <mxGeometry x="219.5" y="650" width="140" height="60" as="geometry" />
        </mxCell>
        <mxCell id="T6yORxNybT7pBkBuabIF-294" value="项目/组件模板" style="text;html=1;strokeColor=none;fillColor=none;align=center;verticalAlign=middle;whiteSpace=wrap;rounded=0;dashed=1;fontStyle=1" vertex="1" parent="T6yORxNybT7pBkBuabIF-1">
          <mxGeometry x="248.5" y="660" width="82" height="20" as="geometry" />
        </mxCell>
        <mxCell id="T6yORxNybT7pBkBuabIF-295" value="提供项目/组件模板查询" style="text;html=1;strokeColor=none;fillColor=none;align=center;verticalAlign=middle;whiteSpace=wrap;rounded=0;dashed=1;" vertex="1" parent="T6yORxNybT7pBkBuabIF-1">
          <mxGeometry x="224.5" y="680" width="130" height="20" as="geometry" />
        </mxCell>
        <mxCell id="T6yORxNybT7pBkBuabIF-296" value="" style="rounded=0;whiteSpace=wrap;html=1;strokeColor=#d79b00;fillColor=#ffe6cc;" vertex="1" parent="T6yORxNybT7pBkBuabIF-1">
          <mxGeometry x="369.5" y="650" width="140" height="60" as="geometry" />
        </mxCell>
        <mxCell id="T6yORxNybT7pBkBuabIF-297" value="接入OSS API" style="text;html=1;strokeColor=none;fillColor=none;align=center;verticalAlign=middle;whiteSpace=wrap;rounded=0;dashed=1;" vertex="1" parent="T6yORxNybT7pBkBuabIF-1">
          <mxGeometry x="374.5" y="680" width="130" height="20" as="geometry" />
        </mxCell>
        <mxCell id="T6yORxNybT7pBkBuabIF-298" value="" style="rounded=0;whiteSpace=wrap;html=1;strokeColor=#d79b00;fillColor=#ffe6cc;" vertex="1" parent="T6yORxNybT7pBkBuabIF-1">
          <mxGeometry x="519.5" y="650" width="140" height="60" as="geometry" />
        </mxCell>
        <mxCell id="T6yORxNybT7pBkBuabIF-299" value="配置" style="text;html=1;strokeColor=none;fillColor=none;align=center;verticalAlign=middle;whiteSpace=wrap;rounded=0;dashed=1;fontStyle=1" vertex="1" parent="T6yORxNybT7pBkBuabIF-1">
          <mxGeometry x="553.5" y="660" width="72" height="20" as="geometry" />
        </mxCell>
        <mxCell id="T6yORxNybT7pBkBuabIF-300" value="服务端缓存的配置" style="text;html=1;strokeColor=none;fillColor=none;align=center;verticalAlign=middle;whiteSpace=wrap;rounded=0;dashed=1;" vertex="1" parent="T6yORxNybT7pBkBuabIF-1">
          <mxGeometry x="524.5" y="680" width="130" height="20" as="geometry" />
        </mxCell>
        <mxCell id="T6yORxNybT7pBkBuabIF-301" style="edgeStyle=orthogonalEdgeStyle;rounded=0;orthogonalLoop=1;jettySize=auto;html=1;exitX=0.5;exitY=1;exitDx=0;exitDy=0;" edge="1" parent="T6yORxNybT7pBkBuabIF-1">
          <mxGeometry relative="1" as="geometry">
            <mxPoint x="439.5" y="670" as="sourcePoint" />
            <mxPoint x="439.5" y="670" as="targetPoint" />
          </mxGeometry>
        </mxCell>
        <mxCell id="T6yORxNybT7pBkBuabIF-302" value="静态资源查询" style="text;html=1;strokeColor=none;fillColor=none;align=center;verticalAlign=middle;whiteSpace=wrap;rounded=0;dashed=1;fontStyle=1" vertex="1" parent="T6yORxNybT7pBkBuabIF-1">
          <mxGeometry x="397" y="660" width="82" height="20" as="geometry" />
        </mxCell>
        <mxCell id="T6yORxNybT7pBkBuabIF-318" style="edgeStyle=orthogonalEdgeStyle;rounded=0;orthogonalLoop=1;jettySize=auto;html=1;exitX=0.25;exitY=0;exitDx=0;exitDy=0;" edge="1" parent="T6yORxNybT7pBkBuabIF-1" source="T6yORxNybT7pBkBuabIF-303">
          <mxGeometry relative="1" as="geometry">
            <mxPoint x="830" y="450" as="targetPoint" />
          </mxGeometry>
        </mxCell>
        <mxCell id="T6yORxNybT7pBkBuabIF-333" style="edgeStyle=orthogonalEdgeStyle;rounded=0;orthogonalLoop=1;jettySize=auto;html=1;exitX=1;exitY=0.75;exitDx=0;exitDy=0;" edge="1" parent="T6yORxNybT7pBkBuabIF-1" source="T6yORxNybT7pBkBuabIF-303">
          <mxGeometry relative="1" as="geometry">
            <mxPoint x="1260" y="690" as="targetPoint" />
          </mxGeometry>
        </mxCell>
        <mxCell id="T6yORxNybT7pBkBuabIF-345" style="edgeStyle=orthogonalEdgeStyle;rounded=0;orthogonalLoop=1;jettySize=auto;html=1;exitX=1;exitY=0.25;exitDx=0;exitDy=0;entryX=0;entryY=0.5;entryDx=0;entryDy=0;" edge="1" parent="T6yORxNybT7pBkBuabIF-1" source="T6yORxNybT7pBkBuabIF-303" target="T6yORxNybT7pBkBuabIF-326">
          <mxGeometry relative="1" as="geometry" />
        </mxCell>
        <mxCell id="T6yORxNybT7pBkBuabIF-303" value="" style="rounded=0;whiteSpace=wrap;html=1;dashed=1;" vertex="1" parent="T6yORxNybT7pBkBuabIF-1">
          <mxGeometry x="712" y="600" width="473" height="120" as="geometry" />
        </mxCell>
        <mxCell id="T6yORxNybT7pBkBuabIF-304" value="&lt;font style=&quot;font-size: 14px&quot;&gt;支撑发布体系的核心服务&lt;/font&gt;" style="text;html=1;strokeColor=none;fillColor=none;align=center;verticalAlign=middle;whiteSpace=wrap;rounded=0;" vertex="1" parent="T6yORxNybT7pBkBuabIF-1">
          <mxGeometry x="717" y="620" width="438" height="10" as="geometry" />
        </mxCell>
        <mxCell id="T6yORxNybT7pBkBuabIF-305" value="&lt;b&gt;&lt;font style=&quot;font-size: 14px&quot;&gt;WebSocket服务&lt;/font&gt;&lt;/b&gt;" style="text;html=1;align=center;verticalAlign=middle;whiteSpace=wrap;rounded=0;fillColor=#ffffff;" vertex="1" parent="T6yORxNybT7pBkBuabIF-1">
          <mxGeometry x="891.75" y="590" width="107.5" height="20" as="geometry" />
        </mxCell>
        <mxCell id="T6yORxNybT7pBkBuabIF-306" value="" style="rounded=0;whiteSpace=wrap;html=1;strokeColor=#d79b00;fillColor=#ffe6cc;" vertex="1" parent="T6yORxNybT7pBkBuabIF-1">
          <mxGeometry x="735" y="650" width="140" height="60" as="geometry" />
        </mxCell>
        <mxCell id="T6yORxNybT7pBkBuabIF-307" value="云构建" style="text;html=1;strokeColor=none;fillColor=none;align=center;verticalAlign=middle;whiteSpace=wrap;rounded=0;dashed=1;fontStyle=1" vertex="1" parent="T6yORxNybT7pBkBuabIF-1">
          <mxGeometry x="764" y="660" width="82" height="20" as="geometry" />
        </mxCell>
        <mxCell id="T6yORxNybT7pBkBuabIF-308" value="完成云端构建" style="text;html=1;strokeColor=none;fillColor=none;align=center;verticalAlign=middle;whiteSpace=wrap;rounded=0;dashed=1;" vertex="1" parent="T6yORxNybT7pBkBuabIF-1">
          <mxGeometry x="740" y="680" width="130" height="20" as="geometry" />
        </mxCell>
        <mxCell id="T6yORxNybT7pBkBuabIF-309" value="" style="rounded=0;whiteSpace=wrap;html=1;strokeColor=#d79b00;fillColor=#ffe6cc;" vertex="1" parent="T6yORxNybT7pBkBuabIF-1">
          <mxGeometry x="885" y="650" width="140" height="60" as="geometry" />
        </mxCell>
        <mxCell id="T6yORxNybT7pBkBuabIF-310" value="完成云端发布" style="text;html=1;strokeColor=none;fillColor=none;align=center;verticalAlign=middle;whiteSpace=wrap;rounded=0;dashed=1;" vertex="1" parent="T6yORxNybT7pBkBuabIF-1">
          <mxGeometry x="890" y="680" width="130" height="20" as="geometry" />
        </mxCell>
        <mxCell id="T6yORxNybT7pBkBuabIF-311" value="" style="rounded=0;whiteSpace=wrap;html=1;strokeColor=#d79b00;fillColor=#ffe6cc;" vertex="1" parent="T6yORxNybT7pBkBuabIF-1">
          <mxGeometry x="1035" y="650" width="140" height="60" as="geometry" />
        </mxCell>
        <mxCell id="T6yORxNybT7pBkBuabIF-312" value="发布模式" style="text;html=1;strokeColor=none;fillColor=none;align=center;verticalAlign=middle;whiteSpace=wrap;rounded=0;dashed=1;fontStyle=1" vertex="1" parent="T6yORxNybT7pBkBuabIF-1">
          <mxGeometry x="1069" y="660" width="72" height="20" as="geometry" />
        </mxCell>
        <mxCell id="T6yORxNybT7pBkBuabIF-313" value="支持测试和正式环境发布" style="text;html=1;strokeColor=none;fillColor=none;align=center;verticalAlign=middle;whiteSpace=wrap;rounded=0;dashed=1;" vertex="1" parent="T6yORxNybT7pBkBuabIF-1">
          <mxGeometry x="1040" y="680" width="130" height="20" as="geometry" />
        </mxCell>
        <mxCell id="T6yORxNybT7pBkBuabIF-314" style="edgeStyle=orthogonalEdgeStyle;rounded=0;orthogonalLoop=1;jettySize=auto;html=1;exitX=0.5;exitY=1;exitDx=0;exitDy=0;" edge="1" parent="T6yORxNybT7pBkBuabIF-1">
          <mxGeometry relative="1" as="geometry">
            <mxPoint x="955" y="670" as="sourcePoint" />
            <mxPoint x="955" y="670" as="targetPoint" />
          </mxGeometry>
        </mxCell>
        <mxCell id="T6yORxNybT7pBkBuabIF-315" value="云发布" style="text;html=1;strokeColor=none;fillColor=none;align=center;verticalAlign=middle;whiteSpace=wrap;rounded=0;dashed=1;fontStyle=1" vertex="1" parent="T6yORxNybT7pBkBuabIF-1">
          <mxGeometry x="912.5" y="660" width="82" height="20" as="geometry" />
        </mxCell>
        <mxCell id="T6yORxNybT7pBkBuabIF-316" value="&lt;b&gt;&lt;font style=&quot;font-size: 18px&quot;&gt;提供前后端分离的标准服务&lt;/font&gt;&lt;/b&gt;" style="rounded=0;whiteSpace=wrap;html=1;shadow=0;dashed=1;dashPattern=1 1;strokeColor=#000000;fillColor=#ffffff;gradientColor=none;" vertex="1" parent="T6yORxNybT7pBkBuabIF-1">
          <mxGeometry x="390" y="490" width="580" height="60" as="geometry" />
        </mxCell>
        <mxCell id="T6yORxNybT7pBkBuabIF-319" value="" style="whiteSpace=wrap;html=1;rounded=0;dashed=1;" vertex="1" parent="T6yORxNybT7pBkBuabIF-1">
          <mxGeometry x="1250" y="60" width="120" height="140" as="geometry" />
        </mxCell>
        <mxCell id="T6yORxNybT7pBkBuabIF-321" value="git open api" style="rounded=0;whiteSpace=wrap;html=1;shadow=0;dashed=1;dashPattern=1 1;strokeColor=#000000;fillColor=#ffffff;gradientColor=none;" vertex="1" parent="T6yORxNybT7pBkBuabIF-1">
          <mxGeometry x="1185" y="110" width="45" height="40" as="geometry" />
        </mxCell>
        <mxCell id="T6yORxNybT7pBkBuabIF-322" value="代码仓库" style="text;html=1;align=center;verticalAlign=middle;whiteSpace=wrap;rounded=0;shadow=0;dashed=1;dashPattern=1 1;fillColor=#ffffff;" vertex="1" parent="T6yORxNybT7pBkBuabIF-1">
          <mxGeometry x="1285" y="50" width="50" height="20" as="geometry" />
        </mxCell>
        <mxCell id="T6yORxNybT7pBkBuabIF-323" value="支撑远程代码存储" style="text;html=1;strokeColor=none;fillColor=none;align=center;verticalAlign=middle;whiteSpace=wrap;rounded=0;shadow=0;dashed=1;dashPattern=1 1;" vertex="1" parent="T6yORxNybT7pBkBuabIF-1">
          <mxGeometry x="1260" y="70" width="110" height="20" as="geometry" />
        </mxCell>
        <mxCell id="T6yORxNybT7pBkBuabIF-324" value="Github&lt;br&gt;免费的git仓库" style="rounded=0;whiteSpace=wrap;html=1;shadow=0;dashed=1;dashPattern=1 1;strokeColor=#10739e;fillColor=#b1ddf0;" vertex="1" parent="T6yORxNybT7pBkBuabIF-1">
          <mxGeometry x="1257.5" y="102" width="105" height="32" as="geometry" />
        </mxCell>
        <mxCell id="T6yORxNybT7pBkBuabIF-325" value="Gitee&lt;br&gt;项目初始化支持" style="rounded=0;whiteSpace=wrap;html=1;shadow=0;dashed=1;dashPattern=1 1;strokeColor=#10739e;fillColor=#b1ddf0;" vertex="1" parent="T6yORxNybT7pBkBuabIF-1">
          <mxGeometry x="1257.5" y="150" width="105" height="32" as="geometry" />
        </mxCell>
        <mxCell id="T6yORxNybT7pBkBuabIF-326" value="" style="whiteSpace=wrap;html=1;rounded=0;dashed=1;" vertex="1" parent="T6yORxNybT7pBkBuabIF-1">
          <mxGeometry x="1240" y="375" width="130" height="160" as="geometry" />
        </mxCell>
        <mxCell id="T6yORxNybT7pBkBuabIF-328" value="API" style="rounded=0;whiteSpace=wrap;html=1;shadow=0;dashed=1;dashPattern=1 1;strokeColor=#000000;fillColor=#ffffff;gradientColor=none;" vertex="1" parent="T6yORxNybT7pBkBuabIF-1">
          <mxGeometry x="1196.5" y="520" width="30" height="50" as="geometry" />
        </mxCell>
        <mxCell id="T6yORxNybT7pBkBuabIF-329" value="资源体系" style="text;html=1;align=center;verticalAlign=middle;whiteSpace=wrap;rounded=0;shadow=0;dashed=1;dashPattern=1 1;fillColor=#ffffff;" vertex="1" parent="T6yORxNybT7pBkBuabIF-1">
          <mxGeometry x="1277.5" y="365" width="55" height="20" as="geometry" />
        </mxCell>
        <mxCell id="T6yORxNybT7pBkBuabIF-330" value="支撑发布的前端资源体系" style="text;html=1;strokeColor=none;fillColor=none;align=center;verticalAlign=middle;whiteSpace=wrap;rounded=0;shadow=0;dashed=1;dashPattern=1 1;" vertex="1" parent="T6yORxNybT7pBkBuabIF-1">
          <mxGeometry x="1247.5" y="395" width="115" height="20" as="geometry" />
        </mxCell>
        <mxCell id="T6yORxNybT7pBkBuabIF-331" value="OSS&lt;br&gt;前端资源文件" style="rounded=0;whiteSpace=wrap;html=1;shadow=0;dashed=1;dashPattern=1 1;strokeColor=#10739e;fillColor=#b1ddf0;" vertex="1" parent="T6yORxNybT7pBkBuabIF-1">
          <mxGeometry x="1252.5" y="433" width="105" height="32" as="geometry" />
        </mxCell>
        <mxCell id="T6yORxNybT7pBkBuabIF-332" value="CDN&lt;br&gt;前端静态资源加速" style="rounded=0;whiteSpace=wrap;html=1;shadow=0;dashed=1;dashPattern=1 1;strokeColor=#10739e;fillColor=#b1ddf0;" vertex="1" parent="T6yORxNybT7pBkBuabIF-1">
          <mxGeometry x="1252.5" y="484" width="105" height="32" as="geometry" />
        </mxCell>
        <mxCell id="T6yORxNybT7pBkBuabIF-334" value="" style="whiteSpace=wrap;html=1;rounded=0;dashed=1;" vertex="1" parent="T6yORxNybT7pBkBuabIF-1">
          <mxGeometry x="1240" y="560" width="130" height="160" as="geometry" />
        </mxCell>
        <mxCell id="T6yORxNybT7pBkBuabIF-335" value="远程缓存体系" style="text;html=1;strokeColor=none;align=center;verticalAlign=middle;whiteSpace=wrap;rounded=0;shadow=0;dashed=1;dashPattern=1 1;fillColor=#ffffff;" vertex="1" parent="T6yORxNybT7pBkBuabIF-1">
          <mxGeometry x="1270" y="550" width="80" height="20" as="geometry" />
        </mxCell>
        <mxCell id="T6yORxNybT7pBkBuabIF-336" value="支持发布的缓存体系" style="text;html=1;strokeColor=none;fillColor=none;align=center;verticalAlign=middle;whiteSpace=wrap;rounded=0;shadow=0;dashed=1;dashPattern=1 1;" vertex="1" parent="T6yORxNybT7pBkBuabIF-1">
          <mxGeometry x="1247.5" y="580" width="115" height="20" as="geometry" />
        </mxCell>
        <mxCell id="T6yORxNybT7pBkBuabIF-337" value="Redis&lt;br&gt;发布任务缓存" style="rounded=0;whiteSpace=wrap;html=1;shadow=0;dashed=1;dashPattern=1 1;strokeColor=#10739e;fillColor=#b1ddf0;" vertex="1" parent="T6yORxNybT7pBkBuabIF-1">
          <mxGeometry x="1252.5" y="618" width="105" height="32" as="geometry" />
        </mxCell>
        <mxCell id="T6yORxNybT7pBkBuabIF-338" value="服务断缓存&lt;br&gt;服务端代码缓存" style="rounded=0;whiteSpace=wrap;html=1;shadow=0;dashed=1;dashPattern=1 1;strokeColor=#10739e;fillColor=#b1ddf0;" vertex="1" parent="T6yORxNybT7pBkBuabIF-1">
          <mxGeometry x="1252.5" y="669" width="105" height="32" as="geometry" />
        </mxCell>
        <mxCell id="T6yORxNybT7pBkBuabIF-358" style="edgeStyle=orthogonalEdgeStyle;rounded=0;orthogonalLoop=1;jettySize=auto;html=1;entryX=0.5;entryY=1;entryDx=0;entryDy=0;" edge="1" parent="T6yORxNybT7pBkBuabIF-1" source="T6yORxNybT7pBkBuabIF-349" target="T6yORxNybT7pBkBuabIF-283">
          <mxGeometry relative="1" as="geometry" />
        </mxCell>
        <mxCell id="T6yORxNybT7pBkBuabIF-349" value="" style="rounded=0;whiteSpace=wrap;html=1;shadow=0;dashed=1;dashPattern=1 1;strokeColor=#000000;fillColor=#ffffff;gradientColor=none;" vertex="1" parent="T6yORxNybT7pBkBuabIF-1">
          <mxGeometry x="-48.5" y="530" width="160" height="190" as="geometry" />
        </mxCell>
        <mxCell id="T6yORxNybT7pBkBuabIF-350" value="数据体系" style="text;html=1;align=center;verticalAlign=middle;whiteSpace=wrap;rounded=0;shadow=0;fillColor=#b0e3e6;strokeColor=#0e8088;fontStyle=1" vertex="1" parent="T6yORxNybT7pBkBuabIF-1">
          <mxGeometry x="-13.5" y="520" width="90" height="20" as="geometry" />
        </mxCell>
        <mxCell id="T6yORxNybT7pBkBuabIF-351" value="支持标准和自定义模式" style="text;html=1;strokeColor=none;fillColor=none;align=center;verticalAlign=middle;whiteSpace=wrap;rounded=0;shadow=0;fontStyle=1" vertex="1" parent="T6yORxNybT7pBkBuabIF-1">
          <mxGeometry x="-30" y="548" width="123" height="20" as="geometry" />
        </mxCell>
        <mxCell id="T6yORxNybT7pBkBuabIF-352" value="&lt;b&gt;MySQL&lt;br&gt;组件信息存储&lt;br&gt;&lt;/b&gt;" style="rounded=1;whiteSpace=wrap;html=1;shadow=0;strokeColor=#d6b656;fillColor=#fff2cc;gradientColor=#ffd966;" vertex="1" parent="T6yORxNybT7pBkBuabIF-1">
          <mxGeometry x="-28.5" y="573" width="120" height="60" as="geometry" />
        </mxCell>
        <mxCell id="T6yORxNybT7pBkBuabIF-353" value="&lt;b&gt;MongoDB&lt;br&gt;项目信息存储&lt;br&gt;&lt;/b&gt;" style="rounded=1;whiteSpace=wrap;html=1;shadow=0;strokeColor=#d6b656;fillColor=#fff2cc;gradientColor=#ffd966;" vertex="1" parent="T6yORxNybT7pBkBuabIF-1">
          <mxGeometry x="-27" y="646" width="120" height="60" as="geometry" />
        </mxCell>
        <mxCell id="T6yORxNybT7pBkBuabIF-355" value="DB" style="rounded=0;whiteSpace=wrap;html=1;shadow=0;dashed=1;dashPattern=1 1;strokeColor=#000000;fillColor=#ffffff;gradientColor=none;" vertex="1" parent="T6yORxNybT7pBkBuabIF-1">
          <mxGeometry x="-48" y="456" width="158" height="44" as="geometry" />
        </mxCell>
      </root>
    </mxGraphModel>
  </diagram>
</mxfile>
